Coordinates
version=1
nRows=20
nColumns=36
inDegrees=no

Units are S.I. units (second, meters, Newtons, ...)
If the header above contains a line with 'inDegrees', this indicates whether rotational values are in degrees (yes) or radians (no).

endheader
time	pelvis_tilt	pelvis_list	pelvis_rotation	pelvis_tx	pelvis_ty	pelvis_tz	hip_flexion_r	hip_adduction_r	hip_rotation_r	knee_angle_r	knee_adduction_r	ankle_angle_r	subtalar_angle_r	mtp_angle_r	hip_flexion_l	hip_adduction_l	hip_rotation_l	knee_angle_l	knee_adduction_l	ankle_angle_l	subtalar_angle_l	mtp_angle_l	lumbar_extension	lumbar_bending	lumbar_rotation	arm_flex_r	arm_add_r	arm_rot_r	elbow_flex_r	pro_sup_r	arm_flex_l	arm_add_l	arm_rot_l	elbow_flex_l	pro_sup_l
8.09	-0.174059	-0.0322925	-0.00331394	-0.202881	0.924641	-1.20612	0.26497	-0.0958313	-0.241176	0.230937	0.0586236	0.192533	0.386468	-0.114958	0.24427	-0.221632	-0.304926	0.197991	0.10963	0.191614	0.423384	-0.114958	0.0691095	-0.005622	0.0136239	1.31462	-0.156587	0.330862	0.820613	0.411151	1.48124	-0.114129	0.865133	0.577115	2.09
8.095	-0.177232	-0.0320788	-0.00314781	-0.20364	0.924452	-1.20608	0.271932	-0.0961825	-0.239697	0.235844	0.0580039	0.192203	0.384839	-0.114958	0.250514	-0.221151	-0.302455	0.200881	0.108526	0.190164	0.422483	-0.114958	0.0681826	-0.00603383	0.0135228	1.31972	-0.156871	0.331173	0.820385	0.410773	1.48633	-0.113569	0.870166	0.574377	2.09
8.1	-0.181106	-0.0320197	-0.00302092	-0.20446	0.924221	-1.20604	0.280115	-0.096547	-0.240211	0.241664	0.0569059	0.192335	0.38649	-0.114958	0.257979	-0.220827	-0.301776	0.204744	0.106655	0.189011	0.424196	-0.114958	0.0678162	-0.00612389	0.012903	1.32504	-0.15676	0.333523	0.818849	0.408933	1.48933	-0.113697	0.866096	0.575404	2.09
8.105	-0.187734	-0.0316131	-0.00297019	-0.20539	0.923732	-1.20598	0.292461	-0.0973759	-0.246605	0.249794	0.0535447	0.194522	0.397748	-0.114958	0.269346	-0.220154	-0.303234	0.210278	0.103679	0.189202	0.42901	-0.114958	0.0705305	-0.00675159	0.0124577	1.32997	-0.157054	0.335914	0.817565	0.404298	1.49292	-0.113743	0.867115	0.575018	2.09
8.11	-0.192664	-0.0312765	-0.0029079	-0.206364	0.923377	-1.20591	0.302389	-0.0979016	-0.246597	0.256295	0.0521492	0.194722	0.39879	-0.114958	0.278557	-0.219627	-0.301018	0.214791	0.10199	0.188874	0.428315	-0.114958	0.070976	-0.00730779	0.0119045	1.33486	-0.157231	0.341394	0.816561	0.406316	1.49751	-0.11402	0.870418	0.573841	2.09
8.115	-0.197741	-0.0310308	-0.00291183	-0.207389	0.922993	-1.20585	0.31266	-0.0983238	-0.246419	0.263021	0.0506984	0.194965	0.399642	-0.114958	0.288132	-0.21926	-0.298941	0.21964	0.10041	0.188585	0.427462	-0.114958	0.0713234	-0.00776057	0.0114629	1.34013	-0.157072	0.344206	0.815857	0.405952	1.50235	-0.114233	0.874301	0.572543	2.09
8.12	-0.202983	-0.0309483	-0.00274905	-0.208458	0.922577	-1.2058	0.323251	-0.0986337	-0.246323	0.270002	0.0492248	0.195275	0.400432	-0.114958	0.298147	-0.219112	-0.296414	0.224816	0.0989642	0.188377	0.42648	-0.114958	0.0715537	-0.00814374	0.0109349	1.34583	-0.157097	0.345666	0.815287	0.405168	1.50732	-0.114157	0.877914	0.571317	2.09
8.125	-0.208423	-0.0306443	-0.00252031	-0.209574	0.92214	-1.20575	0.33432	-0.0992343	-0.246244	0.277398	0.0476881	0.195744	0.401255	-0.114958	0.308572	-0.218749	-0.293549	0.230288	0.0976012	0.188163	0.425328	-0.114958	0.0718628	-0.00869287	0.0100594	1.35146	-0.157215	0.35071	0.813539	0.406986	1.51221	-0.114603	0.881762	0.570708	2.09
8.13	-0.213858	-0.0302447	-0.00227596	-0.210738	0.921683	-1.20571	0.345626	-0.0999603	-0.246095	0.285147	0.046123	0.196352	0.401984	-0.114958	0.319326	-0.21838	-0.290322	0.236337	0.0963432	0.18822	0.423875	-0.114958	0.0718053	-0.00940724	0.00912941	1.35725	-0.157321	0.355239	0.81237	0.407331	1.51764	-0.115614	0.886807	0.570851	2.09
8.135	-0.219173	-0.0298132	-0.00211767	-0.211955	0.921195	-1.20568	0.357079	-0.100822	-0.245534	0.293319	0.0447455	0.197104	0.402411	-0.114958	0.330334	-0.217888	-0.286854	0.242977	0.0947426	0.189149	0.421891	-0.114958	0.0713846	-0.0100137	0.00852958	1.36329	-0.157416	0.358365	0.811727	0.406607	1.52329	-0.116287	0.892022	0.570548	2.09
8.14	-0.225015	-0.0293874	-0.00200568	-0.213251	0.920609	-1.20565	0.369449	-0.101623	-0.244786	0.301976	0.0431939	0.198122	0.402794	-0.114958	0.342489	-0.217347	-0.283688	0.250524	0.0926149	0.190863	0.419683	-0.114958	0.0713395	-0.0107757	0.00793618	1.36943	-0.157594	0.361171	0.811145	0.405737	1.52925	-0.116693	0.897255	0.569655	2.09
8.145	-0.231215	-0.028961	-0.00183288	-0.214609	0.919946	-1.20564	0.382426	-0.102405	-0.243797	0.310924	0.0415458	0.199295	0.402754	-0.114958	0.355497	-0.216913	-0.280963	0.258973	0.0904733	0.192102	0.419724	-0.114958	0.071494	-0.0116371	0.00724195	1.37579	-0.157937	0.364254	0.810257	0.405177	1.53544	-0.117	0.902966	0.568485	2.09
8.15	-0.237553	-0.0283679	-0.00156152	-0.216023	0.919236	-1.20563	0.395931	-0.103625	-0.242346	0.320608	0.0403391	0.200691	0.402117	-0.114958	0.36904	-0.216344	-0.277754	0.26803	0.0885907	0.192808	0.419756	-0.114958	0.0715821	-0.0124819	0.00645372	1.38246	-0.158097	0.367433	0.809053	0.4048	1.54173	-0.117648	0.909377	0.567849	2.09
8.155	-0.243585	-0.0275815	-0.001331	-0.217475	0.918505	-1.20562	0.409434	-0.105077	-0.240364	0.330829	0.0392841	0.202275	0.400797	-0.114958	0.382507	-0.215643	-0.273586	0.277446	0.0869035	0.194558	0.417125	-0.114958	0.0710416	-0.0135201	0.00577438	1.38925	-0.158038	0.369916	0.807968	0.404994	1.54856	-0.118313	0.916903	0.567017	2.09
8.16	-0.249369	-0.026705	-0.00122329	-0.218948	0.917738	-1.2056	0.422913	-0.106571	-0.237509	0.341403	0.0384392	0.203971	0.398462	-0.114958	0.395818	-0.215112	-0.269713	0.287294	0.0856134	0.195877	0.415358	-0.114958	0.0700201	-0.0146981	0.0052487	1.39605	-0.157922	0.371683	0.80708	0.406496	1.55603	-0.118886	0.926573	0.56552	2.09
8.165	-0.254986	-0.0259025	-0.00103673	-0.220442	0.916937	-1.20561	0.436287	-0.10808	-0.233686	0.352084	0.0381265	0.205467	0.394653	-0.114958	0.40909	-0.214772	-0.265111	0.297386	0.0849426	0.196312	0.413618	-0.114958	0.068619	-0.0157833	0.00471218	1.40294	-0.157904	0.373233	0.80622	0.409428	1.56439	-0.119951	0.942896	0.564586	2.09
8.17	-0.262084	-0.0249348	-0.000925198	-0.222034	0.915917	-1.20566	0.452392	-0.110127	-0.23672	0.364899	0.0349205	0.208979	0.401732	-0.114958	0.42489	-0.214254	-0.264908	0.309354	0.0821558	0.198941	0.417808	-0.114958	0.0687735	-0.0168872	0.00377642	1.41072	-0.158478	0.378545	0.805451	0.39382	1.56917	-0.120078	0.935903	0.564729	2.09
8.175	-0.267862	-0.0237559	-0.000836938	-0.223667	0.914941	-1.20569	0.467027	-0.112366	-0.234459	0.377326	0.033929	0.211475	0.40118	-0.114958	0.439235	-0.213502	-0.261164	0.320995	0.0806165	0.201583	0.415688	-0.114958	0.0670092	-0.0184829	0.00320639	1.41892	-0.159625	0.384298	0.804361	0.39094	1.57692	-0.12037	0.942931	0.563446	2.09
8.18	-0.272908	-0.0229459	-0.000389463	-0.225422	0.913937	-1.20576	0.481273	-0.114404	-0.233167	0.390466	0.0327032	0.213887	0.400117	-0.114958	0.453342	-0.213143	-0.257947	0.333352	0.0791689	0.203651	0.41569	-0.114958	0.0638488	-0.0197794	0.00236191	1.42746	-0.160418	0.387588	0.803631	0.388421	1.58538	-0.120464	0.949936	0.562574	2.09
8.185	-0.277955	-0.0222824	0.000575	-0.227262	0.912871	-1.20584	0.495941	-0.116772	-0.232481	0.404632	0.0317817	0.216108	0.398167	-0.114958	0.467993	-0.212747	-0.253918	0.346194	0.0776976	0.206113	0.414766	-0.114958	0.0603781	-0.0206684	0.000987711	1.43629	-0.160215	0.387861	0.802754	0.385922	1.59384	-0.120835	0.956081	0.562295	2.09
